# xmcd
#
# Track frame offsets: 
#        150
#        36727
#        60854
#        88408
#        104141
#        131759
#        148808
#        167343
#        186854
#
# Disc length: 2732 seconds
#
# Revision: 0
# Processed by: cddbd v1.5.1PL2 Copyright (c) Steve Scherf et al.
# Submitted via: ExactAudioCopy v0.95b3
#
DISCID=870aaa09
DTITLE=Van Morrison - Pacific High Studios Remastered Disk 2
DYEAR=1971
DGENRE=Classic Rock
TTITLE0=Moonshine Whiskey
TTITLE1=Dead Or Alive
TTITLE2=You're My Woman
TTITLE3=The Dreams Of You
TTITLE4=Domino
TTITLE5=Call Me Up In Dreamland
TTITLE6=Blue Money
TTITLE7=BringIt On Home
TTITLE8=Buona Sera Signorrina
EXTD=
EXTT0=
EXTT1=
EXTT2=
EXTT3=
EXTT4=
EXTT5=
EXTT6=
EXTT7=
EXTT8=
PLAYORDER=
